HIERARCHY
ROOT hip
{
  OFFSET 0.0 0.0 0.0
  CHANNELS 6 Xposition Yposition Zposition Zrotation Yrotation Xrotation
  JOINT abdomen
  {
    OFFSET 0.0 20.6881 -0.73152
    CHANNELS 3 Zrotation Xrotation Yrotation
    JOINT chest
    {
      OFFSET 0.0 11.7043 -0.48768
      CHANNELS 3 Zrotation Xrotation Yrotation
      JOINT neck
      {
        OFFSET 0.0 22.1894 -2.19456
        CHANNELS 3 Zrotation Xrotation Yrotation
        JOINT head
        {
          OFFSET -0.24384 7.07133 1.2192
          CHANNELS 3 Zrotation Xrotation Yrotation
          JOINT leftEye
          {
            OFFSET 4.14528 8.04674 8.04672
            CHANNELS 3 Zrotation Xrotation Yrotation
            End Site
            {
              OFFSET 1.0 0.0 0.0
            }
          }
          JOINT rightEye
          {
            OFFSET -3.6576 8.04674 8.04672
            CHANNELS 3 Zrotation Xrotation Yrotation
            End Site
            {
              OFFSET 1.0 0.0 0.0
            }
          }
        }
      }
      JOINT rCollar
      {
        OFFSET -2.68224 19.2634 -4.8768
        CHANNELS 3 Zrotation Xrotation Yrotation
        JOINT rShldr
        {
          OFFSET -8.77824 -1.95073 1.46304
          CHANNELS 3 Zrotation Xrotation Yrotation
          JOINT rForeArm
          {
            OFFSET -28.1742 -1.7115 0.48768
            CHANNELS 3 Zrotation Xrotation Yrotation
            JOINT rHand
            {
              OFFSET -22.5879 0.773209 7.07136
              CHANNELS 3 Zrotation Xrotation Yrotation
              JOINT rThumb1
              {
                OFFSET -1.2192 -0.487915 3.41376
                CHANNELS 3 Zrotation Xrotation Yrotation
                JOINT rThumb2
                {
                  OFFSET -3.37035 -0.52449 3.41376
                  CHANNELS 3 Zrotation Xrotation Yrotation
                  End Site
                  {
                    OFFSET -1.78271 -1.18214 1.43049
                  }
                }
              }
              JOINT rIndex1
              {
                OFFSET -7.75947 0.938293 5.60832
                CHANNELS 3 Zrotation Xrotation Yrotation
                JOINT rIndex2
                {
                  OFFSET -2.54057 -0.884171 1.56538
                  CHANNELS 3 Zrotation Xrotation Yrotation
                  End Site
                  {
                    OFFSET -1.62519 -0.234802 1.16502
                  }
                }
              }
              JOINT rMid1
              {
                OFFSET -8.24714 1.18213 3.41376
                CHANNELS 3 Zrotation Xrotation Yrotation
                JOINT rMid2
                {
                  OFFSET -3.10165 -0.590103 1.0647
                  CHANNELS 3 Zrotation Xrotation Yrotation
                  End Site
                  {
                    OFFSET -2.48547 -0.328903 0.83742
                  }
                }
              }
              JOINT rRing1
              {
                OFFSET -8.82822 0.546677 1.51678
                CHANNELS 3 Zrotation Xrotation Yrotation
                JOINT rRing2
                {
                  OFFSET -2.60934 -0.819778 -0.0198488
                  CHANNELS 3 Zrotation Xrotation Yrotation
                  End Site
                  {
                    OFFSET -2.33842 -0.294052 0.168128
                  }
                }
              }
              JOINT rPinky1
              {
                OFFSET -8.27202 -0.0477905 -0.4584
                CHANNELS 3 Zrotation Xrotation Yrotation
                JOINT rPinky2
                {
                  OFFSET -1.82734 -0.647385 -0.700984
                  CHANNELS 3 Zrotation Xrotation Yrotation
                  End Site
                  {
                    OFFSET -1.69225 -0.51767 -0.607171
                  }
                }
              }
            }
          }
        }
      }
      JOINT lCollar
      {
        OFFSET 2.68224 19.2634 -4.8768
        CHANNELS 3 Zrotation Xrotation Yrotation
        JOINT lShldr
        {
          OFFSET 8.77824 -1.95073 1.46304
          CHANNELS 3 Zrotation Xrotation Yrotation
          JOINT lForeArm
          {
            OFFSET 28.1742 -1.7115 0.48768
            CHANNELS 3 Zrotation Xrotation Yrotation
            JOINT lHand
            {
              OFFSET 22.5879 0.773209 7.07136
              CHANNELS 3 Zrotation Xrotation Yrotation
              JOINT lThumb1
              {
                OFFSET 1.2192 -0.487915 3.41376
                CHANNELS 3 Zrotation Xrotation Yrotation
                JOINT lThumb2
                {
                  OFFSET 3.37035 -0.52449 3.41376
                  CHANNELS 3 Zrotation Xrotation Yrotation
                  End Site
                  {
                    OFFSET 1.78271 -1.18214 1.43049
                  }
                }
              }
              JOINT lIndex1
              {
                OFFSET 7.75947 0.938293 5.60832
                CHANNELS 3 Zrotation Xrotation Yrotation
                JOINT lIndex2
                {
                  OFFSET 2.54057 -0.884171 1.56538
                  CHANNELS 3 Zrotation Xrotation Yrotation
                  End Site
                  {
                    OFFSET 1.62519 -0.234802 1.16502
                  }
                }
              }
              JOINT lMid1
              {
                OFFSET 8.24714 1.18213 3.41376
                CHANNELS 3 Zrotation Xrotation Yrotation
                JOINT lMid2
                {
                  OFFSET 3.10165 -0.590103 1.0647
                  CHANNELS 3 Zrotation Xrotation Yrotation
                  End Site
                  {
                    OFFSET 2.48547 -0.328903 0.83742
                  }
                }
              }
              JOINT lRing1
              {
                OFFSET 8.82822 0.546677 1.51678
                CHANNELS 3 Zrotation Xrotation Yrotation
                JOINT lRing2
                {
                  OFFSET 2.60934 -0.819778 -0.0198488
                  CHANNELS 3 Zrotation Xrotation Yrotation
                  End Site
                  {
                    OFFSET 2.33842 -0.294052 0.168128
                  }
                }
              }
              JOINT lPinky1
              {
                OFFSET 8.27202 -0.0477905 -0.4584
                CHANNELS 3 Zrotation Xrotation Yrotation
                JOINT lPinky2
                {
                  OFFSET 1.82734 -0.647385 -0.700984
                  CHANNELS 3 Zrotation Xrotation Yrotation
                  End Site
                  {
                    OFFSET 1.69225 -0.51767 -0.607171
                  }
                }
              }
            }
          }
        }
      }
    }
  }
  JOINT rButtock
  {
    OFFSET -8.77824 4.35084 1.2192
    CHANNELS 3 Zrotation Xrotation Yrotation
    JOINT rThigh
    {
      OFFSET 0.0 -1.70687 -2.19456
      CHANNELS 3 Zrotation Xrotation Yrotation
      JOINT rShin
      {
        OFFSET 0.0 -36.8199 0.73152
        CHANNELS 3 Zrotation Xrotation Yrotation
        JOINT rFoot
        {
          OFFSET 0.73152 -45.1104 -5.12064
          CHANNELS 3 Zrotation Xrotation Yrotation
          End Site
          {
            OFFSET -1.1221 -3.69964 12.103
          }
        }
      }
    }
  }
  JOINT lButtock
  {
    OFFSET 8.77824 4.35084 1.2192
    CHANNELS 3 Zrotation Xrotation Yrotation
    JOINT lThigh
    {
      OFFSET 0.0 -1.70687 -2.19456
      CHANNELS 3 Zrotation Xrotation Yrotation
      JOINT lShin
      {
        OFFSET 0.0 -36.8199 0.73152
        CHANNELS 3 Zrotation Xrotation Yrotation
        JOINT lFoot
        {
          OFFSET -0.73152 -45.1104 -5.12064
          CHANNELS 3 Zrotation Xrotation Yrotation
          End Site
          {
            OFFSET 1.1221 -3.69964 12.103
          }
        }
      }
    }
  }
}
MOTION
Frames: 6
Frame Time: 0.00833333
-41.06300000000002 86.5079 0.20960000000000178 354.522 -70.7229 1467.2 -4.77512 12.7268 -1.49248 -0.102377 -4.00146 -1.08641 -6.92442 5.4694 -8.13507 16.6411 -25.3756 -11.6086 -0.0 0.0 0.0 -0.0 0.0 0.0 0.0 0.0 0.0 0.0 0.0 0.0 0.0 0.0 0.0 -0.0225807 -4.32134 -0.608462 -1.44546e-09 -1.39752e-09 1.13575e-09 -2.50848e-09 -2.42337e-09 1.95811e-09 -1.44547e-09 -1.39752e-09 1.13573e-09 7.73091 5.47488 0.417314 -1.44546e-09 -1.39752e-09 1.13575e-09 2.90554 0.965183 0.102902 -1.44545e-09 -1.39752e-09 1.13575e-09 10.2786 0.731801 0.0259123 -1.44546e-09 -1.39752e-09 1.13575e-09 2.22167 -0.733487 -0.20892 0.0 0.0 0.0 0.0 0.0 0.0 0.0 0.0 0.0 1.73192 -34.5797 5.5596 -1.35433e-09 -5.03429e-11 -1.06972e-09 -2.32049e-09 -9.09651e-11 -1.86586e-09 -1.35433e-09 -5.03438e-11 -1.06971e-09 -7.73091 5.47488 -0.417314 -1.35433e-09 -5.034e-11 -1.06972e-09 -2.90554 0.965183 -0.102902 -1.35433e-09 -5.03385e-11 -1.06972e-09 -10.2786 0.731801 -0.0259123 -1.35433e-09 -5.03375e-11 -1.06973e-09 -2.22167 -0.733487 0.20892 -2.03217e-16 0.0 -3.88251e-19 6.11171 -34.1918 12.6099 -176.351 64.6125 176.537 -1.0213 8.71136 -13.4827 2.03217e-16 0.0 3.88251e-19 -1.32812 -26.666 19.6918 0.165429 26.2889 1.26865 1.32009 -3.61233 8.85413
-41.71700000000001 86.3739 0.3669000000000011 356.129 -69.3194 1465.32 -3.9303 14.9466 -2.33066 0.196012 -3.99515 -1.25742 -7.11768 5.47731 -8.28954 16.7763 -26.2852 -11.753 -0.0 0.0 0.0 -0.0 0.0 0.0 0.0 0.0 0.0 0.0 0.0 0.0 0.0 0.0 0.0 -0.0280214 -4.80647 -0.677087 -8.92113e-10 -1.82552e-11 1.8005e-09 -1.55799e-09 -4.92925e-11 3.11253e-09 -8.92119e-10 -1.82563e-11 1.80048e-09 7.73091 5.47488 0.417314 -8.92122e-10 -1.82576e-11 1.8005e-09 2.90554 0.965183 0.102902 -8.92107e-10 -1.82532e-11 1.8005e-09 10.2786 0.731801 0.0259123 -8.92116e-10 -1.82523e-11 1.8005e-09 2.22167 -0.733487 -0.20892 0.0 0.0 0.0 0.0 0.0 0.0 0.0 0.0 0.0 1.74355 -34.6782 5.58011 -4.30565e-09 4.61064e-10 -2.95285e-09 -7.36667e-09 7.01584e-10 -5.19802e-09 -4.30565e-09 4.61066e-10 -2.95285e-09 -7.73091 5.47488 -0.417314 -4.30565e-09 4.61069e-10 -2.95285e-09 -2.90554 0.965183 -0.102902 -4.30565e-09 4.6107e-10 -2.95285e-09 -10.2786 0.731801 -0.0259123 -4.30565e-09 4.6107e-10 -2.95286e-09 -2.22167 -0.733487 0.20892 -2.03217e-16 0.0 -3.88251e-19 5.50313 -36.0889 12.5847 -176.011 67.87 176.203 -1.63227 5.29436 -13.0932 2.03217e-16 0.0 3.88251e-19 -2.29469 -26.4925 17.6776 0.132896 26.885 1.04384 1.41745 -3.46888 10.4146
-42.36100000000002 86.2921 0.5159999999999982 357.469 -68.0704 1463.81 -2.96593 17.1408 -3.10305 0.52768 -3.9533 -1.3964 -7.33967 5.4898 -8.44192 16.8896 -27.2904 -11.8898 -0.0 0.0 0.0 -0.0 0.0 0.0 0.0 0.0 0.0 0.0 0.0 0.0 0.0 0.0 0.0 -0.034995 -5.34313 -0.753131 -2.82926e-10 1.34579e-09 2.34349e-09 -5.09956e-10 2.29945e-09 4.05664e-09 -2.82927e-10 1.34579e-09 2.34348e-09 7.73091 5.47488 0.417314 -2.82938e-10 1.34579e-09 2.34349e-09 2.90554 0.965183 0.102902 -2.8292e-10 1.34579e-09 2.34349e-09 10.2786 0.731801 0.0259123 -2.82929e-10 1.34579e-09 2.34349e-09 2.22167 -0.733487 -0.20892 0.0 0.0 0.0 0.0 0.0 0.0 0.0 0.0 0.0 1.76238 -34.8368 5.61324 -6.95555e-09 9.53855e-10 -4.63112e-09 -1.18969e-08 1.47146e-09 -8.16977e-09 -6.95555e-09 9.5386e-10 -4.63112e-09 -7.73091 5.47488 -0.417314 -6.95555e-09 9.53862e-10 -4.63113e-09 -2.90554 0.965183 -0.102902 -6.95555e-09 9.53862e-10 -4.63112e-09 -10.2786 0.731801 -0.0259123 -6.95554e-09 9.53862e-10 -4.63113e-09 -2.22167 -0.733487 0.20892 -2.03217e-16 0.0 -3.88251e-19 4.96011 -38.0259 12.5987 -175.481 71.4884 175.685 -2.14937 2.02754 -12.6736 2.03217e-16 0.0 3.88251e-19 -3.2425 -26.3963 15.5739 0.105743 27.5253 0.811753 1.54027 -3.26466 12.2699
-42.99600000000001 86.2578 0.6602000000000032 358.666 -67.0422 1462.6 -1.98766 19.1182 -3.73374 0.887182 -3.86354 -1.4854 -7.54382 5.54187 -8.56674 16.8703 -28.2629 -12.0181 -0.0 0.0 0.0 -0.0 0.0 0.0 0.0 0.0 0.0 0.0 0.0 0.0 0.0 0.0 0.0 -0.0424475 -5.87001 -0.827903 1.84334e-10 2.10082e-09 2.60529e-09 2.95681e-10 3.60006e-09 4.51217e-09 1.84337e-10 2.10082e-09 2.60529e-09 7.73091 5.47488 0.417314 1.8432e-10 2.10081e-09 2.6053e-09 2.90554 0.965183 0.102902 1.84339e-10 2.10082e-09 2.60529e-09 10.2786 0.731801 0.0259123 1.84329e-10 2.10083e-09 2.6053e-09 2.22167 -0.733487 -0.20892 0.0 0.0 0.0 0.0 0.0 0.0 0.0 0.0 0.0 1.78015 -34.9851 5.64435 -8.13163e-09 1.18309e-09 -5.42154e-09 -1.39054e-08 1.8277e-09 -9.56884e-09 -8.13164e-09 1.1831e-09 -5.42154e-09 -7.73091 5.47488 -0.417314 -8.13164e-09 1.1831e-09 -5.42155e-09 -2.90554 0.965183 -0.102902 -8.13164e-09 1.1831e-09 -5.42154e-09 -10.2786 0.731801 -0.0259123 -8.13163e-09 1.1831e-09 -5.42155e-09 -2.22167 -0.733487 0.20892 -2.03217e-16 0.0 -3.88251e-19 4.55022 -39.947 12.89 -174.567 75.4608 174.796 -2.64638 -1.18367 -12.3358 2.03217e-16 0.0 3.88251e-19 -4.02405 -26.3995 13.99 0.086002 28.1456 0.587054 1.64114 -3.01659 13.8872
-43.63500000000002 86.268 0.8038000000000025 359.835 -66.2789 1461.59 -1.04019 20.8674 -4.17649 1.32114 -3.70731 -1.50928 -7.75402 5.65614 -8.66694 16.6601 -29.2912 -12.1479 -0.0 0.0 0.0 -0.0 0.0 0.0 0.0 0.0 0.0 0.0 0.0 0.0 0.0 0.0 0.0 -0.0505393 -6.42594 -0.906895 4.75851e-10 1.90867e-09 2.50485e-09 8.01735e-10 3.26996e-09 4.3375e-09 4.75858e-10 1.90867e-09 2.50484e-09 7.73091 5.47488 0.417314 4.75839e-10 1.90866e-09 2.50486e-09 2.90554 0.965183 0.102902 4.7586e-10 1.90867e-09 2.50485e-09 10.2786 0.731801 0.0259123 4.75846e-10 1.90867e-09 2.50486e-09 2.22167 -0.733487 -0.20892 0.0 0.0 0.0 0.0 0.0 0.0 0.0 0.0 0.0 1.79229 -35.0843 5.66534 -7.00972e-09 1.00086e-09 -4.85661e-09 -1.19813e-08 1.53685e-09 -8.56605e-09 -7.00972e-09 1.00087e-09 -4.85661e-09 -7.73091 5.47488 -0.417314 -7.00972e-09 1.00087e-09 -4.85662e-09 -2.90554 0.965183 -0.102902 -7.00972e-09 1.00087e-09 -4.85661e-09 -10.2786 0.731801 -0.0259123 -7.00971e-09 1.00087e-09 -4.85662e-09 -2.22167 -0.733487 0.20892 -2.03217e-16 0.0 -3.88251e-19 4.36117 -41.9082 13.5741 -172.74 79.8044 173.01 -3.16001 -4.39452 -12.0851 2.03217e-16 0.0 3.88251e-19 -4.6686 -26.6015 13.0156 0.0726886 28.7924 0.362667 1.74074 -2.76031 15.327
-44.30000000000001 86.3229 0.947499999999998 360.999 -65.7658 1460.73 -0.0943267 22.4801 -4.47187 1.81615 -3.4963 -1.48112 -7.98275 5.80948 -8.75291 16.327 -30.4029 -12.2779 -0.0 0.0 0.0 -0.0 0.0 0.0 0.0 0.0 0.0 0.0 0.0 0.0 0.0 0.0 0.0 -0.0602032 -7.02521 -0.992256 6.90797e-10 1.14596e-09 2.14004e-09 1.17835e-09 1.95793e-09 3.70351e-09 6.90808e-10 1.14596e-09 2.14003e-09 7.73091 5.47488 0.417314 6.90789e-10 1.14596e-09 2.14004e-09 2.90554 0.965183 0.102902 6.9081e-10 1.14597e-09 2.14004e-09 10.2786 0.731801 0.0259123 6.90791e-10 1.14597e-09 2.14005e-09 2.22167 -0.733487 -0.20892 0.0 0.0 0.0 0.0 0.0 0.0 0.0 0.0 0.0 1.80401 -35.1787 5.68542 -4.38558e-09 5.65335e-10 -3.39571e-09 -7.48623e-09 8.50496e-10 -5.97656e-09 -4.38559e-09 5.65336e-10 -3.39571e-09 -7.73091 5.47488 -0.417314 -4.38559e-09 5.65335e-10 -3.39572e-09 -2.90554 0.965183 -0.102902 -4.38559e-09 5.65334e-10 -3.39571e-09 -10.2786 0.731801 -0.0259123 -4.38558e-09 5.65335e-10 -3.39572e-09 -2.22167 -0.733487 0.20892 -2.03217e-16 0.0 -3.88251e-19 4.39448 -43.9041 14.5498 -167.536 84.4907 167.856 -3.65332 -7.5432 -11.8599 2.03217e-16 0.0 3.88251e-19 -5.25133 -26.9783 12.3436 0.0661189 29.4787 0.133884 1.84824 -2.47828 16.8059
